<?xml version="1.0" encoding="UTF-8" standalone="no"?>
<!-- Created with Inkscape (http://www.inkscape.org/) -->

<svg
   width="3840"
   height="2160"
   viewBox="0 0 3840 2160"
   version="1.1"
   id="svg5"
   inkscape:version="1.1.1 (3bf5ae0d25, 2021-09-20, custom)"
   sodipodi:docname="learning.svg"
   inkscape:export-filename="/home/vageesh/Documents/Arts/manjaro_dark_water.png"
   inkscape:export-xdpi="100"
   inkscape:export-ydpi="100"
   xmlns:inkscape="http://www.inkscape.org/namespaces/inkscape"
   xmlns:sodipodi="http://sodipodi.sourceforge.net/DTD/sodipodi-0.dtd"
   xmlns:xlink="http://www.w3.org/1999/xlink"
   xmlns="http://www.w3.org/2000/svg"
   xmlns:svg="http://www.w3.org/2000/svg">
  <sodipodi:namedview
     id="namedview7"
     pagecolor="#ffffff"
     bordercolor="#666666"
     borderopacity="1.0"
     inkscape:pageshadow="2"
     inkscape:pageopacity="0.0"
     inkscape:pagecheckerboard="0"
     inkscape:document-units="px"
     showgrid="false"
     inkscape:zoom="0.16"
     inkscape:cx="596.875"
     inkscape:cy="768.75"
     inkscape:window-width="1920"
     inkscape:window-height="1012"
     inkscape:window-x="0"
     inkscape:window-y="0"
     inkscape:window-maximized="1"
     inkscape:current-layer="layer5" />
  <defs
     id="defs2">
    <filter
       inkscape:label="Apparition"
       inkscape:menu="Blurs"
       inkscape:menu-tooltip="Edges are partly feathered out"
       style="color-interpolation-filters:sRGB;"
       id="filter2953"
       x="-0.0087737186"
       y="-0.10111953"
       width="1.0175474"
       height="1.2022391">
      <feMorphology
         radius="4"
         in="SourceGraphic"
         result="result0"
         id="feMorphology2947" />
      <feGaussianBlur
         in="result0"
         stdDeviation="8"
         result="result91"
         id="feGaussianBlur2949" />
      <feComposite
         operator="in"
         in="SourceGraphic"
         in2="result91"
         id="feComposite2951" />
    </filter>
    <filter
       inkscape:label="Apparition"
       inkscape:menu="Blurs"
       inkscape:menu-tooltip="Edges are partly feathered out"
       style="color-interpolation-filters:sRGB;"
       id="filter2979"
       x="-0.0090233594"
       y="-0.1039967"
       width="1.0180467"
       height="1.2079934">
      <feMorphology
         radius="4"
         in="SourceGraphic"
         result="result0"
         id="feMorphology2973" />
      <feGaussianBlur
         in="result0"
         stdDeviation="8"
         result="result91"
         id="feGaussianBlur2975" />
      <feComposite
         operator="in"
         in="SourceGraphic"
         in2="result91"
         id="feComposite2977" />
    </filter>
    <filter
       style="color-interpolation-filters:sRGB;"
       inkscape:label="Cross Blur"
       id="filter10572"
       x="-0.10106518"
       y="-0.038647901"
       width="1.2019346"
       height="1.0772867">
      <feColorMatrix
         in="SourceGraphic"
         values="1 0 0 0 0 0 1 0 0 0 0 0 1 0 0 -0.2125 -0.7154 -0.0721 1 0 "
         result="colormatrix"
         id="feColorMatrix10562" />
      <feComposite
         in="SourceGraphic"
         in2="colormatrix"
         operator="arithmetic"
         k2="1"
         k3="0"
         k4="0"
         result="composite"
         id="feComposite10564" />
      <feGaussianBlur
         stdDeviation="20 0.01"
         result="blur1"
         id="feGaussianBlur10566" />
      <feGaussianBlur
         in="composite"
         stdDeviation="0.01 7.26305"
         result="blur2"
         id="feGaussianBlur10568" />
      <feBlend
         in="blur2"
         in2="blur1"
         mode="darken"
         result="blend"
         id="feBlend10570" />
    </filter>
  </defs>
  <g
     inkscape:label="Base"
     inkscape:groupmode="layer"
     id="layer1"
     sodipodi:insensitive="true">
    <rect
       style="fill:#181818;fill-opacity:1;stroke:#000000;stroke-width:4.682;stroke-opacity:1"
       id="rect846"
       width="3840"
       height="2160"
       x="0"
       y="0"
       ry="0" />
  </g>
  <g
     inkscape:groupmode="layer"
     id="layer2"
     inkscape:label="Bars">
    <g
       id="g10594"
       style="fill:#17a2b8"
       inkscape:export-filename="/home/vageesh/Documents/Arts/arch_dark_blue.png"
       inkscape:export-xdpi="100"
       inkscape:export-ydpi="100"
       transform="translate(27.273367,-27.818317)">
      <rect
         style="fill:#17a2b8;fill-opacity:1;stroke:#181818;stroke-width:3.77019;stroke-opacity:1;filter:url(#filter2979)"
         id="rect2445-3"
         width="2336.7234"
         height="202.74773"
         x="-2919.9612"
         y="-2842.4216"
         transform="matrix(-0.70164621,0.71252551,-0.67920408,-0.73394947,0,0)"
         ry="101.37386" />
      <rect
         style="fill:#17a2b8;fill-opacity:1;stroke:#181818;stroke-width:3.88833;stroke-opacity:1;filter:url(#filter2953)"
         id="rect2445-3-6"
         width="2409.9434"
         height="209.10071"
         x="-768.10529"
         y="-1619.8109"
         transform="matrix(-0.70164621,0.71252551,-0.67920408,-0.73394947,0,0)"
         ry="104.55035" />
    </g>
  </g>
  <g
     inkscape:groupmode="layer"
     id="layer3"
     inkscape:label="arch"
     style="display:none"
     sodipodi:insensitive="true">
    <path
       style="fill:#61c0cf;stroke:#000000;stroke-width:1.05288px;stroke-linecap:butt;stroke-linejoin:miter;stroke-opacity:1"
       d="m 1675.7804,1323.3987 76.127,-137.7168 44.0458,-82.7982 44.6913,-85.7677 13.4789,-27.56619 9.2419,8.00026 7.3874,4.74153 7.0158,4.8649 7.1267,3.8582 8.7913,4.253 12.5113,6.1536 14.3756,7.0982 1.3952,0.4949 -0.3326,-0.6368 -2.8233,-2.9554 -21.095,-15.7662 -13.6173,-12.57698 -11.7254,-11.3023 -10.6505,-10.61501 -0.6466,-0.39556 23.9458,-52.87704 34.9537,-85.28335 28.8478,66.91296 24.5241,55.42522 24.6136,51.91916 17.9864,36.5368 23.5679,44.9353 20.0539,38.3622 15.0576,27.7002 30.5526,55.7836 -17.9784,-8.5165 -20.1913,-8.2522 -19.6617,-6.6405 -5.2242,-0.2013 8.3906,4.0896 12.3328,6.7213 12.1982,8.0146 13.6182,9.5265 11.6705,8.82 11.3919,9.4024 5.131,4.4125 4.5722,2.8054 3.9035,3.5682 38.9806,75.4675 -30.7205,-16.701 -30.7248,-16.5532 -27.4846,-13.6688 -22.2056,-9.3235 -16.1176,-6.7194 -13.0283,-4.5768 -15.0506,-5.9523 -17.9916,-5.5602 -12.8192,-2.2678 -5.6143,-1.0378 1.9762,-9.7697 1.4555,-21.6876 -1.9753,-21.2983 -4.9519,-19.9439 -5.4334,-12.104 -9.9488,-17.0019 -10.9502,-11.3485 -13.2297,-6.9137 -9.3288,0.3716 -12.0369,1.4865 -9.5195,5.4716 -8.6097,6.5341 -7.0885,10.2255 -8.3159,14.4698 -3.5203,12.8925 -2.5668,10.0598 -1.413,14.388 -0.8558,9.6118 -0.2271,9.3201 1.4262,9.7599 1.585,7.2206 0.8736,5.093 0.2245,2.0408 0.1738,1.9007 -12.5972,2.5269 -8.9919,1.5575 -17.2964,4.2218 -14.6213,5.5088 -14.9566,6.2016 -15.3786,5.4298 -11.6004,6.4073 -12.3108,4.6858 -11.0018,4.6369 -23.0658,11.0744 z"
       id="path9226" />
  </g>
  <g
     inkscape:groupmode="layer"
     id="layer4"
     inkscape:label="manjaro"
     style="display:none"
     sodipodi:insensitive="true">
    <g
       id="g4585"
       style="fill:none;stroke:#61c0cf;stroke-opacity:1">
      <ellipse
         style="fill:none;stroke:#61c0cf;stroke-width:30;stroke-miterlimit:4;stroke-dasharray:none;stroke-opacity:1"
         id="path1721"
         cx="1920"
         cy="1080"
         rx="250.11192"
         ry="244.11191" />
      <path
         style="fill:none;fill-opacity:1;stroke:#61c0cf;stroke-width:30;stroke-linecap:butt;stroke-linejoin:miter;stroke-miterlimit:4;stroke-dasharray:none;stroke-opacity:1"
         d="m 2013.988,857.5784 1.6527,443.9476"
         id="path1946" />
      <path
         style="fill:none;fill-opacity:1;stroke:#61c0cf;stroke-width:30;stroke-linecap:butt;stroke-linejoin:miter;stroke-miterlimit:4;stroke-dasharray:none;stroke-opacity:1"
         d="m 1840.601,1315.1773 -1.6585,-236.9533"
         id="path1946-3" />
      <path
         style="fill:none;fill-opacity:1;stroke:#61c0cf;stroke-width:30;stroke-linecap:butt;stroke-linejoin:miter;stroke-miterlimit:4;stroke-dasharray:none;stroke-opacity:1"
         d="m 2011.0588,1076.5594 -187.0738,1.6707"
         id="path1946-3-6" />
    </g>
  </g>
  <g
     inkscape:groupmode="layer"
     id="layer5"
     inkscape:label="linux">
    <image
       width="512"
       height="600"
       preserveAspectRatio="none"
       xlink:href="/home/vageesh/Documents/Arts/images/image1551.png"
       id="image1551"
       x="1664"
       y="780"
       style="display:inline;fill:#4d1230;stroke:#af83f8" />
    <path
       style="fill:#000000;stroke-width:0.793052"
       d="m 2024.9332,1378.4144 c -14.7832,-2.5784 -27.8354,-12.2567 -34.8367,-25.8315 -1.8034,-3.4967 -3.2789,-6.7943 -3.2789,-7.3282 0,-0.7125 -3.3713,-1.0943 -12.6792,-1.4358 -6.9736,-0.2558 -19.0189,-1.352 -26.7673,-2.4359 -21.7418,-3.0413 -33.2355,-2.5633 -62.39,2.5951 -7.0842,1.2534 -15.2541,2.5218 -18.1553,2.8187 l -5.2748,0.5396 -1.9705,3.6268 c -3.2581,5.9969 -10.2615,12.1386 -17.8252,15.6323 -9.65,4.4574 -13.685,5.2096 -27.6169,5.1482 -17.4061,-0.077 -28.2116,-2.8266 -50.2288,-12.7824 -15.6107,-7.0589 -23.1794,-8.8619 -51.2052,-12.1984 -25.6411,-3.0526 -33.0021,-5.0777 -39.7008,-10.9225 -9.1626,-7.9946 -10.3611,-19.5355 -4.084,-39.3253 2.7751,-8.7493 2.8402,-11.4555 0.6369,-26.4821 -2.8601,-19.5062 -1.3089,-28.1855 6.5085,-36.4158 4.8135,-5.0678 9.7734,-7.8812 20.6696,-11.7245 14.252,-5.0269 16.3837,-6.6022 26.0312,-19.2364 2.7889,-3.6524 6.317,-7.9178 7.8401,-9.4788 l 2.7693,-2.8381 0.1583,-16.6932 c 0.1685,-17.7807 0.9848,-23.3597 5.7559,-39.3372 9.7907,-32.7875 32.4994,-72.0519 63.3059,-109.4586 11.2253,-13.6304 11.7977,-14.4072 17.1927,-23.3314 8.3576,-13.82459 13.6686,-28.14047 16.3887,-44.17525 2.5039,-14.7608 2.7556,-22.78916 1.3717,-43.75 -2.095,-31.73149 -1.573,-48.63569 2.0384,-66.01563 8.8456,-42.56925 37.1388,-64.3441 86.4509,-66.53392 28.985,-1.28714 52.4497,6.16662 67.9622,21.58873 13.0467,12.97057 22.7302,34.20591 26.5519,58.22644 2.2717,14.27819 2.6883,21.11311 3.2622,53.51563 0.5995,33.85162 0.6699,34.96423 2.6777,42.31995 5.245,19.21569 13.4234,32.41197 40.107,64.71455 22.8071,27.6098 33.3535,42.9767 44.2321,64.4499 8.1768,16.1398 11.9629,25.6956 15.2805,38.5654 4.3759,16.976 5.7156,33.2047 3.975,48.1533 -0.7163,6.1519 -3.8152,20.4757 -5.1552,23.8282 -0.326,0.8157 0.6625,1.7532 3.2527,3.0849 5.55,2.8535 10.5804,8.0346 13.323,13.7223 1.3391,2.777 3.9943,10.9707 5.9005,18.2081 4.0198,15.2629 5.2732,17.9353 12.1099,25.8203 10.2383,11.8081 15.6642,23.3911 14.5738,31.1116 -0.6409,4.5375 -3.7383,10.1839 -7.4806,13.6364 -4.485,4.1377 -9.9035,7.2439 -28.8494,16.5381 -23.9042,11.7265 -27.4884,14.1714 -43.0692,29.3783 -17.8493,17.4211 -29.053,24.6106 -45.0499,28.909 -6.9818,1.876 -18.7533,2.6378 -24.7087,1.5991 z m 22.3074,-8.9702 c 14.2558,-3.578 25.0136,-10.6036 42.6206,-27.8345 15.7939,-15.4565 21.1788,-19.1252 44.1643,-30.0895 24.0142,-11.455 29.4843,-15.2785 31.5829,-22.0762 1.87,-6.0572 -2.0771,-15.0575 -11.415,-26.0286 -8.6539,-10.1675 -10.0597,-12.9965 -14.1126,-28.4008 -4.2617,-16.1977 -6.1889,-20.767 -10.4456,-24.765 -5.3172,-4.9939 -9.1668,-6.3451 -19.0504,-6.6863 l -8.6605,-0.2991 -2.6099,2.5186 c -7.0203,6.7746 -17.6325,12.9222 -27.0314,15.6592 -7.0316,2.0476 -16.5155,1.8843 -20.9537,-0.3607 -4.1876,-2.1183 -9.5272,-7.2732 -12.1066,-11.6878 -2.5873,-4.4281 -5.7064,-13.5696 -5.7256,-16.7805 -0.025,-4.158 -1.1677,-4.6006 -4.9743,-1.9265 -7.5315,5.2908 -13.0421,17.0709 -15.4667,33.0635 -0.684,4.5117 -1.793,15.7617 -2.4645,25 -1.3249,18.2282 -2.1573,22.3948 -9.2097,46.0938 -11.2355,37.7566 -10.5798,50.0658 3.4428,64.6305 5.0816,5.2779 13.0712,9.7629 19.8294,11.1312 4.9447,1.0011 16.2961,0.4175 22.5865,-1.1613 z m -219.4872,-6.2404 c 10.5481,-2.1686 18.8929,-7.0843 23.7476,-13.989 4.2061,-5.9825 5.958,-11.8101 6.011,-19.996 0.044,-6.7623 -0.1963,-7.9774 -2.7021,-13.6719 -3.5418,-8.0491 -12.5123,-20.9323 -25.7927,-37.0426 -14.079,-17.0794 -14.7437,-18.0795 -30.2249,-45.4798 -14.4885,-25.6435 -16.9077,-29.2945 -22.841,-34.4714 -6.3416,-5.5333 -13.0571,-8.5891 -19.7978,-9.009 -10.1291,-0.6308 -15.192,2.7129 -26.951,17.7997 -11.2657,14.4537 -14.0188,16.4255 -31.5691,22.61 -10.4894,3.6963 -15.162,6.9407 -18.8924,13.1182 -2.9772,4.93 -3.2928,12.2989 -1.125,26.2635 0.9238,5.951 1.6753,12.9822 1.67,15.625 -0.01,4.6778 -0.4563,6.7161 -3.9663,18.0864 -3.4694,11.2382 -3.0036,20.4482 1.2843,25.3935 4.8303,5.5709 12.1719,7.6455 37.388,10.5652 28.2674,3.273 37.567,5.5481 54.2486,13.2714 22.7841,10.5488 43.1573,14.2894 59.5128,10.9268 z m 109.9787,-47.2602 c 16.7642,-3.2947 36.886,-11.3527 50.2931,-20.1406 6.3949,-4.1916 6.0784,-3.5781 10.5683,-20.4902 2.3293,-8.7739 2.9958,-13.2385 3.9655,-26.5625 1.36,-18.6869 3.0057,-30.9073 5.2474,-38.9664 3.6936,-13.2782 11.1345,-23.4507 20.5149,-28.0461 l 4.7856,-2.3444 0.9651,-4.9286 c 2.8974,-14.7962 16.4694,-19.215 37.6764,-12.2667 2.6566,0.8704 9.172,3.7377 14.4785,6.3719 15.7516,7.819 22.5463,15.7515 20.8792,24.3756 -0.4966,2.5687 -0.418,2.6794 1.9006,2.6794 2.9409,0 3.3958,-0.9697 3.3958,-7.2391 0,-3.256 -0.5394,-5.8489 -1.7012,-8.178 -3.5779,-7.1726 -14.0117,-15.2098 -28.7885,-22.1759 -5.1266,-2.4168 -7.1598,-3.767 -6.9187,-4.5945 0.8949,-3.0711 1.9568,-12.6971 1.9711,-17.8685 0.072,-26.0449 -14.1982,-58.7373 -35.9405,-82.3376 -6.7636,-7.3416 -9.4587,-9.544 -10.739,-8.7761 -1.2412,0.7444 0.2883,2.9537 6.7858,9.8014 7.0054,7.3831 12.1506,14.6664 17.8733,25.3008 12.1273,22.5358 15.5691,47.1231 9.3394,66.7177 l -1.3244,4.1658 -3.656,-0.4758 c -2.0108,-0.2617 -4.9757,-0.6667 -6.5886,-0.9 l -2.9326,-0.4243 -1.7864,-7.5626 c -5.0258,-21.2764 -12.0528,-39.1539 -26.1572,-66.547 -18.0477,-35.0516 -32.9927,-71.1033 -41.8902,-101.05131 -1.5516,-5.22259 -2.967,-9.89144 -3.1452,-10.37522 -0.1783,-0.48379 -2.4534,1.12978 -5.0557,3.58569 -5.6454,5.32782 -10.0496,7.93439 -19.8612,11.75465 -4.0333,1.57041 -10.2588,4.63608 -13.8344,6.8126 -14.5864,8.87879 -21.9644,11.44096 -32.9454,11.44096 -12.3944,0 -18.8634,-2.60772 -30.3363,-12.22891 -5.9258,-4.96939 -16.4095,-12.27655 -17.6194,-12.28069 -0.2523,-7.8e-4 -0.8976,3.66123 -1.4338,8.138 -1.2389,10.34323 -6.0425,28.78883 -11.3801,43.69903 -5.4251,15.1546 -11.8809,30.1004 -25.1902,58.3177 -12.1661,25.7936 -15.564,34.1672 -19.4546,47.9434 -3.2656,11.5633 -5.1735,21.968 -6.3883,34.8382 l -0.9189,9.7347 -2.675,-4.0454 c -6.7163,-10.1573 -9.7858,-21.5016 -9.7858,-36.1669 0,-18.388 4.5766,-33.4268 18.1769,-59.7304 8.2629,-15.9808 10.6198,-21.6459 8.4689,-20.3559 -1.496,0.8973 -13.3081,21.2461 -19.4245,33.4628 -17.6924,35.3383 -20.8474,63.3655 -9.606,85.3351 5.5438,10.8346 13.3778,18.5453 28.5695,28.1201 30.8926,19.4706 49.12,38.454 52.7548,54.9429 2.4202,10.9787 -4.1414,19.356 -15.9022,20.3024 -2.3485,0.189 -4.2701,0.4894 -4.2701,0.6675 0,0.178 2.8438,3.9138 6.3196,8.3017 3.4758,4.3878 7.3434,9.495 8.5946,11.3492 5.2434,7.7701 29.1358,17.8682 48.2808,20.4056 8.5984,1.1396 26.1351,0.4032 35.8453,-1.5052 z m -24.0107,-324.31294 c 5.4072,-1.10188 13.4269,-4.79911 23.1843,-10.68837 4.2062,-2.5388 9.0968,-5.06105 10.8679,-5.60501 16.1526,-4.96108 28.7128,-16.74826 28.7128,-26.94573 0,-8.44132 -5.5481,-13.00144 -23.8826,-19.62989 -6.6415,-2.40109 -15.1547,-6.08382 -18.9183,-8.18383 -18.6494,-10.40628 -32.1517,-11.88787 -46.3364,-5.08448 -3.3109,1.588 -8.1382,4.87881 -11.3162,7.71445 -3.0483,2.71982 -9.9743,8.17979 -15.3911,12.13329 -5.4168,3.95349 -10.3979,8.21881 -11.0692,9.47849 -0.6712,1.25968 -1.2204,3.90382 -1.2204,5.87587 0,6.95463 5.3167,13.81471 15.8129,20.40332 3.6053,2.26309 9.7147,6.78815 13.5764,10.05571 7.2377,6.12414 12.6451,9.29475 17.903,10.49734 4.3588,0.99694 13.1312,0.98667 18.0769,-0.0212 z m -18.2749,-16.81856 c -11.9943,-1.76519 -23.6854,-8.04423 -35.2201,-18.91595 -3.4481,-3.2499 -4.6289,-4.91717 -4.6289,-6.53576 0,-3.13968 2.0182,-2.75203 4.3521,0.83595 4.2206,6.48834 17.9777,16.30224 27.2294,19.42462 11.6773,3.94101 22.1256,3.01081 37.0067,-3.29466 12.1666,-5.15529 27.1986,-14.73296 32.978,-21.01205 2.242,-2.43583 3.1787,-2.98941 3.9038,-2.30695 0.5416,0.50974 0.7191,1.61639 0.4105,2.5599 -0.5985,1.83003 -7.5906,7.73297 -14.742,12.44554 -6.7742,4.4641 -22.965,12.13242 -30.4692,14.43092 -6.4396,1.97244 -16.0684,3.06778 -20.8203,2.36844 z m -8.2515,-48.45451 c -3.2799,-1.28436 1.574,-4.95134 6.554,-4.95134 4.3008,0 4.1685,1.25684 -0.3649,3.46658 -4.2593,2.07614 -4.5195,2.13856 -6.1891,1.48476 z m 28.1761,-1.30975 c -4.178,-2.0598 -4.4631,-3.64159 -0.6562,-3.64159 5.3334,0 9.6476,3.01143 6.8112,4.75438 -1.5436,0.94854 -2.2231,0.8257 -6.155,-1.11279 z m -51.4366,2.45771 c 1.8347,-1.37194 3.4883,-2.6038 3.6745,-2.73745 0.1863,-0.13365 -0.43,-1.03702 -1.3694,-2.00748 -8.7156,-9.00318 -6.1867,-31.82312 3.5265,-31.82312 5.2635,0 10.7874,9.24952 10.7874,18.06316 0,2.59782 0.2717,4.58836 0.6037,4.42344 1.8386,-0.91308 9.6814,-4.34011 10.9773,-4.79665 1.387,-0.48865 1.4704,-1.10666 0.9648,-7.153 -1.5566,-18.61811 -11.7397,-32.46725 -23.8163,-32.39043 -4.7456,0.0301 -10.9935,4.26928 -14.9372,10.13473 -6.6612,9.90708 -7.0199,30.20084 -0.7462,42.21566 1.8346,3.51338 5.7171,8.56559 6.5825,8.56559 0.229,0 1.9176,-1.1225 3.7524,-2.49445 z m 105.6548,-1.38886 c 5.9637,-8.74542 8.4595,-24.32481 5.6374,-35.18896 -2.938,-11.31021 -10.155,-20.98744 -18.6938,-25.06639 -3.2759,-1.56493 -5.1336,-1.87474 -11.1744,-1.86356 -8.7086,0.0161 -12.0533,1.42568 -18.7086,7.88436 -7.4004,7.18183 -11.4801,17.84221 -11.4801,29.99823 v 6.17847 l 5.8365,1.68206 c 3.2101,0.92514 6.8327,2.17952 8.0503,2.78752 l 2.2138,1.10545 v -5.85013 c 0,-13.77576 8.531,-23.97122 17.1377,-20.48134 6.5218,2.64446 10.9084,12.32092 9.9764,22.00681 -0.5224,5.42958 -2.6386,11.01115 -4.8449,12.77863 -1.6168,1.2953 -1.7358,2.44341 -0.2532,2.44341 0.5969,0 3.5856,1.02691 6.6416,2.28202 3.0559,1.2551 6.004,2.30979 6.5511,2.34375 0.5472,0.034 1.9468,-1.3342 3.1102,-3.04033 z"
       id="path1698" />
  </g>
  <path
     style="fill:#000000;stroke-width:0.386969"
     id="path8533"
     d="" />
</svg>
